<?xml version="1.0" encoding="utf-8" standalone="no"?>
<!DOCTYPE svg PUBLIC "-//W3C//DTD SVG 1.1//EN"
  "http://www.w3.org/Graphics/SVG/1.1/DTD/svg11.dtd">
<!-- Created with matplotlib (http://matplotlib.org/) -->
<svg height="464pt" version="1.1" viewBox="0 0 720 464" width="720pt" xmlns="http://www.w3.org/2000/svg" xmlns:xlink="http://www.w3.org/1999/xlink">
 <defs>
  <style type="text/css">
*{stroke-linecap:butt;stroke-linejoin:round;stroke-miterlimit:100000;}
  </style>
 </defs>
 <g id="figure_1">
  <g id="patch_1">
   <path d="M 0 464.597158 
L 720 464.597158 
L 720 0 
L 0 0 
z
" style="fill:#ffffff;"/>
  </g>
  <g id="axes_1">
   <g id="patch_2">
    <path clip-path="url(#p6975770aed)" d="M 0 440.144676 
L 0 391.239712 
L 42.352941 366.78723 
L 84.705882 391.239712 
L 84.705882 440.144676 
L 42.352941 464.597158 
z
" style="fill:#35d4af;stroke:#35d4af;stroke-linejoin:miter;"/>
   </g>
   <g id="patch_3">
    <path clip-path="url(#p6975770aed)" d="M 42.352941 366.78723 
L 42.352941 317.882266 
L 84.705882 293.429784 
L 127.058824 317.882266 
L 127.058824 366.78723 
L 84.705882 391.239712 
z
" style="fill:#dffdb5;stroke:#dffdb5;stroke-linejoin:miter;"/>
   </g>
   <g id="patch_4">
    <path clip-path="url(#p6975770aed)" d="M 84.705882 293.429784 
L 84.705882 244.52482 
L 127.058824 220.072338 
L 169.411765 244.52482 
L 169.411765 293.429784 
L 127.058824 317.882266 
z
" style="fill:#aa6739;stroke:#aa6739;stroke-linejoin:miter;"/>
   </g>
   <g id="patch_5">
    <path clip-path="url(#p6975770aed)" d="M 127.058824 220.072338 
L 127.058824 171.167374 
L 169.411765 146.714892 
L 211.764706 171.167374 
L 211.764706 220.072338 
L 169.411765 244.52482 
z
" style="fill:#424a68;stroke:#424a68;stroke-linejoin:miter;"/>
   </g>
   <g id="patch_6">
    <path clip-path="url(#p6975770aed)" d="M 169.411765 146.714892 
L 169.411765 97.809928 
L 211.764706 73.357446 
L 254.117647 97.809928 
L 254.117647 146.714892 
L 211.764706 171.167374 
z
" style="fill:#68431d;stroke:#68431d;stroke-linejoin:miter;"/>
   </g>
   <g id="patch_7">
    <path clip-path="url(#p6975770aed)" d="M 211.764706 73.357446 
L 211.764706 24.452482 
L 254.117647 0 
L 296.470588 24.452482 
L 296.470588 73.357446 
L 254.117647 97.809928 
z
" style="fill:#0dde1c;stroke:#0dde1c;stroke-linejoin:miter;"/>
   </g>
   <g id="patch_8">
    <path clip-path="url(#p6975770aed)" d="M 84.705882 440.144676 
L 84.705882 391.239712 
L 127.058824 366.78723 
L 169.411765 391.239712 
L 169.411765 440.144676 
L 127.058824 464.597158 
z
" style="fill:#1b9bad;stroke:#1b9bad;stroke-linejoin:miter;"/>
   </g>
   <g id="patch_9">
    <path clip-path="url(#p6975770aed)" d="M 127.058824 366.78723 
L 127.058824 317.882266 
L 169.411765 293.429784 
L 211.764706 317.882266 
L 211.764706 366.78723 
L 169.411765 391.239712 
z
" style="fill:#7096ce;stroke:#7096ce;stroke-linejoin:miter;"/>
   </g>
   <g id="patch_10">
    <path clip-path="url(#p6975770aed)" d="M 169.411765 293.429784 
L 169.411765 244.52482 
L 211.764706 220.072338 
L 254.117647 244.52482 
L 254.117647 293.429784 
L 211.764706 317.882266 
z
" style="fill:#7a1d45;stroke:#7a1d45;stroke-linejoin:miter;"/>
   </g>
   <g id="patch_11">
    <path clip-path="url(#p6975770aed)" d="M 211.764706 220.072338 
L 211.764706 171.167374 
L 254.117647 146.714892 
L 296.470588 171.167374 
L 296.470588 220.072338 
L 254.117647 244.52482 
z
" style="fill:#832ead;stroke:#832ead;stroke-linejoin:miter;"/>
   </g>
   <g id="patch_12">
    <path clip-path="url(#p6975770aed)" d="M 254.117647 146.714892 
L 254.117647 97.809928 
L 296.470588 73.357446 
L 338.823529 97.809928 
L 338.823529 146.714892 
L 296.470588 171.167374 
z
" style="fill:#9b83f0;stroke:#9b83f0;stroke-linejoin:miter;"/>
   </g>
   <g id="patch_13">
    <path clip-path="url(#p6975770aed)" d="M 296.470588 73.357446 
L 296.470588 24.452482 
L 338.823529 0 
L 381.176471 24.452482 
L 381.176471 73.357446 
L 338.823529 97.809928 
z
" style="fill:#8e910f;stroke:#8e910f;stroke-linejoin:miter;"/>
   </g>
   <g id="patch_14">
    <path clip-path="url(#p6975770aed)" d="M 169.411765 440.144676 
L 169.411765 391.239712 
L 211.764706 366.78723 
L 254.117647 391.239712 
L 254.117647 440.144676 
L 211.764706 464.597158 
z
" style="fill:#386e57;stroke:#386e57;stroke-linejoin:miter;"/>
   </g>
   <g id="patch_15">
    <path clip-path="url(#p6975770aed)" d="M 211.764706 366.78723 
L 211.764706 317.882266 
L 254.117647 293.429784 
L 296.470588 317.882266 
L 296.470588 366.78723 
L 254.117647 391.239712 
z
" style="fill:#2733d5;stroke:#2733d5;stroke-linejoin:miter;"/>
   </g>
   <g id="patch_16">
    <path clip-path="url(#p6975770aed)" d="M 254.117647 293.429784 
L 254.117647 244.52482 
L 296.470588 220.072338 
L 338.823529 244.52482 
L 338.823529 293.429784 
L 296.470588 317.882266 
z
" style="fill:#602f4c;stroke:#602f4c;stroke-linejoin:miter;"/>
   </g>
   <g id="patch_17">
    <path clip-path="url(#p6975770aed)" d="M 296.470588 220.072338 
L 296.470588 171.167374 
L 338.823529 146.714892 
L 381.176471 171.167374 
L 381.176471 220.072338 
L 338.823529 244.52482 
z
" style="fill:#ba51ae;stroke:#ba51ae;stroke-linejoin:miter;"/>
   </g>
   <g id="patch_18">
    <path clip-path="url(#p6975770aed)" d="M 338.823529 146.714892 
L 338.823529 97.809928 
L 381.176471 73.357446 
L 423.529412 97.809928 
L 423.529412 146.714892 
L 381.176471 171.167374 
z
" style="fill:#94db4b;stroke:#94db4b;stroke-linejoin:miter;"/>
   </g>
   <g id="patch_19">
    <path clip-path="url(#p6975770aed)" d="M 381.176471 73.357446 
L 381.176471 24.452482 
L 423.529412 0 
L 465.882353 24.452482 
L 465.882353 73.357446 
L 423.529412 97.809928 
z
" style="fill:#11fcfb;stroke:#11fcfb;stroke-linejoin:miter;"/>
   </g>
   <g id="patch_20">
    <path clip-path="url(#p6975770aed)" d="M 254.117647 440.144676 
L 254.117647 391.239712 
L 296.470588 366.78723 
L 338.823529 391.239712 
L 338.823529 440.144676 
L 296.470588 464.597158 
z
" style="fill:#44e5f2;stroke:#44e5f2;stroke-linejoin:miter;"/>
   </g>
   <g id="patch_21">
    <path clip-path="url(#p6975770aed)" d="M 296.470588 366.78723 
L 296.470588 317.882266 
L 338.823529 293.429784 
L 381.176471 317.882266 
L 381.176471 366.78723 
L 338.823529 391.239712 
z
" style="fill:#10f7d9;stroke:#10f7d9;stroke-linejoin:miter;"/>
   </g>
   <g id="patch_22">
    <path clip-path="url(#p6975770aed)" d="M 338.823529 293.429784 
L 338.823529 244.52482 
L 381.176471 220.072338 
L 423.529412 244.52482 
L 423.529412 293.429784 
L 381.176471 317.882266 
z
" style="fill:#0c2592;stroke:#0c2592;stroke-linejoin:miter;"/>
   </g>
   <g id="patch_23">
    <path clip-path="url(#p6975770aed)" d="M 381.176471 220.072338 
L 381.176471 171.167374 
L 423.529412 146.714892 
L 465.882353 171.167374 
L 465.882353 220.072338 
L 423.529412 244.52482 
z
" style="fill:#ba3936;stroke:#ba3936;stroke-linejoin:miter;"/>
   </g>
   <g id="patch_24">
    <path clip-path="url(#p6975770aed)" d="M 423.529412 146.714892 
L 423.529412 97.809928 
L 465.882353 73.357446 
L 508.235294 97.809928 
L 508.235294 146.714892 
L 465.882353 171.167374 
z
" style="fill:#41302f;stroke:#41302f;stroke-linejoin:miter;"/>
   </g>
   <g id="patch_25">
    <path clip-path="url(#p6975770aed)" d="M 465.882353 73.357446 
L 465.882353 24.452482 
L 508.235294 0 
L 550.588235 24.452482 
L 550.588235 73.357446 
L 508.235294 97.809928 
z
" style="fill:#9be37d;stroke:#9be37d;stroke-linejoin:miter;"/>
   </g>
   <g id="patch_26">
    <path clip-path="url(#p6975770aed)" d="M 338.823529 440.144676 
L 338.823529 391.239712 
L 381.176471 366.78723 
L 423.529412 391.239712 
L 423.529412 440.144676 
L 381.176471 464.597158 
z
" style="fill:#b9d537;stroke:#b9d537;stroke-linejoin:miter;"/>
   </g>
   <g id="patch_27">
    <path clip-path="url(#p6975770aed)" d="M 381.176471 366.78723 
L 381.176471 317.882266 
L 423.529412 293.429784 
L 465.882353 317.882266 
L 465.882353 366.78723 
L 423.529412 391.239712 
z
" style="fill:#3c559f;stroke:#3c559f;stroke-linejoin:miter;"/>
   </g>
   <g id="patch_28">
    <path clip-path="url(#p6975770aed)" d="M 423.529412 293.429784 
L 423.529412 244.52482 
L 465.882353 220.072338 
L 508.235294 244.52482 
L 508.235294 293.429784 
L 465.882353 317.882266 
z
" style="fill:#23cc2a;stroke:#23cc2a;stroke-linejoin:miter;"/>
   </g>
   <g id="patch_29">
    <path clip-path="url(#p6975770aed)" d="M 465.882353 220.072338 
L 465.882353 171.167374 
L 508.235294 146.714892 
L 550.588235 171.167374 
L 550.588235 220.072338 
L 508.235294 244.52482 
z
" style="fill:#d5a089;stroke:#d5a089;stroke-linejoin:miter;"/>
   </g>
   <g id="patch_30">
    <path clip-path="url(#p6975770aed)" d="M 508.235294 146.714892 
L 508.235294 97.809928 
L 550.588235 73.357446 
L 592.941176 97.809928 
L 592.941176 146.714892 
L 550.588235 171.167374 
z
" style="fill:#755711;stroke:#755711;stroke-linejoin:miter;"/>
   </g>
   <g id="patch_31">
    <path clip-path="url(#p6975770aed)" d="M 550.588235 73.357446 
L 550.588235 24.452482 
L 592.941176 0 
L 635.294118 24.452482 
L 635.294118 73.357446 
L 592.941176 97.809928 
z
" style="fill:#635652;stroke:#635652;stroke-linejoin:miter;"/>
   </g>
   <g id="patch_32">
    <path clip-path="url(#p6975770aed)" d="M 423.529412 440.144676 
L 423.529412 391.239712 
L 465.882353 366.78723 
L 508.235294 391.239712 
L 508.235294 440.144676 
L 465.882353 464.597158 
z
" style="fill:#31a491;stroke:#31a491;stroke-linejoin:miter;"/>
   </g>
   <g id="patch_33">
    <path clip-path="url(#p6975770aed)" d="M 465.882353 366.78723 
L 465.882353 317.882266 
L 508.235294 293.429784 
L 550.588235 317.882266 
L 550.588235 366.78723 
L 508.235294 391.239712 
z
" style="fill:#044707;stroke:#044707;stroke-linejoin:miter;"/>
   </g>
   <g id="patch_34">
    <path clip-path="url(#p6975770aed)" d="M 508.235294 293.429784 
L 508.235294 244.52482 
L 550.588235 220.072338 
L 592.941176 244.52482 
L 592.941176 293.429784 
L 550.588235 317.882266 
z
" style="fill:#6cce37;stroke:#6cce37;stroke-linejoin:miter;"/>
   </g>
   <g id="patch_35">
    <path clip-path="url(#p6975770aed)" d="M 550.588235 220.072338 
L 550.588235 171.167374 
L 592.941176 146.714892 
L 635.294118 171.167374 
L 635.294118 220.072338 
L 592.941176 244.52482 
z
" style="fill:#29556e;stroke:#29556e;stroke-linejoin:miter;"/>
   </g>
   <g id="patch_36">
    <path clip-path="url(#p6975770aed)" d="M 592.941176 146.714892 
L 592.941176 97.809928 
L 635.294118 73.357446 
L 677.647059 97.809928 
L 677.647059 146.714892 
L 635.294118 171.167374 
z
" style="fill:#f89f55;stroke:#f89f55;stroke-linejoin:miter;"/>
   </g>
   <g id="patch_37">
    <path clip-path="url(#p6975770aed)" d="M 635.294118 73.357446 
L 635.294118 24.452482 
L 677.647059 0 
L 720 24.452482 
L 720 73.357446 
L 677.647059 97.809928 
z
" style="fill:#2322f4;stroke:#2322f4;stroke-linejoin:miter;"/>
   </g>
  </g>
 </g>
 <defs>
  <clipPath id="p6975770aed">
   <rect height="464.597157795" width="720.0" x="0.0" y="5.68434188608e-14"/>
  </clipPath>
 </defs>
</svg>
